<svg width="281" height="72" viewBox="0 0 281 72" fill="none" xmlns="http://www.w3.org/2000/svg">
<rect width="281" height="69" fill="black" fill-opacity="0"/>
<rect width="48" height="62" fill="black" fill-opacity="0" transform="translate(0 4)"/>
<path opacity="0.55" d="M0 4L16 12.8571V30.5714L0 21.7143V4Z" fill="#CDD5FF"/>
<path opacity="0.83" d="M32 21.7144L16 30.5715V48.2858L32 39.4286V21.7144Z" fill="white"/>
<path opacity="0.55" d="M32 4L48 12.8571V30.5714L32 21.7143V4Z" fill="#CDD5FF"/>
<path d="M32 21.7144L48 30.5715V48.2858L32 39.4286V21.7144Z" fill="white"/>
<path opacity="0.55" d="M32 39.4285L48 48.2856V65.9999L32 57.1427V39.4285Z" fill="#CDD5FF"/>
<g opacity="0.55" filter="url(#filter0_d)">
<path d="M0 39.4285L16 48.2856V65.9999L0 57.1427V39.4285Z" fill="#CDD5FF"/>
</g>
<path d="M0 21.7144L16 30.5715V48.2858L0 39.4286V21.7144Z" fill="white"/>
<path d="M83.1487 36.128H68.1887V51H66.6047V20.288H68.1887V34.72H83.1487V20.288H84.7327V51H83.1487V36.128ZM111.512 51L108.256 41.056H95.8476L92.5916 51H90.9196L100.996 20.288H103.152L113.184 51H111.512ZM102.14 22.048H101.92L96.2436 39.648H107.86L102.14 22.048ZM129.534 51.528C125.985 51.528 123.272 50.2667 121.394 47.744C119.546 45.192 118.622 41.1587 118.622 35.644C118.622 30.1587 119.546 26.14 121.394 23.588C123.272 21.036 125.985 19.76 129.534 19.76C131.793 19.76 133.641 20.3613 135.078 21.564C136.516 22.7373 137.572 24.248 138.246 26.096L136.838 26.668C136.252 24.996 135.357 23.676 134.154 22.708C132.952 21.7107 131.412 21.212 129.534 21.212C126.513 21.212 124.225 22.2973 122.67 24.468C121.145 26.6093 120.382 29.7773 120.382 33.972V37.316C120.382 41.5107 121.145 44.6933 122.67 46.864C124.225 49.0053 126.513 50.076 129.534 50.076C131.412 50.076 132.952 49.592 134.154 48.624C135.357 47.6267 136.252 46.292 136.838 44.62L138.246 45.192C137.572 47.04 136.516 48.5653 135.078 49.768C133.641 50.9413 131.793 51.528 129.534 51.528ZM153.277 34.456L147.733 40.66V51H146.149V20.288H147.733V38.504H147.821L153.409 32.168L163.925 20.288H165.861L154.421 33.268L166.037 51H164.145L153.277 34.456ZM177.284 51H171.52V20.288H183.18C186.172 20.288 188.46 21.1387 190.044 22.84C191.628 24.5413 192.42 26.8587 192.42 29.792C192.42 32.0507 191.892 33.9573 190.836 35.512C189.809 37.0373 188.328 38.0053 186.392 38.416L192.948 51H186.612L180.76 39.076H177.284V51ZM181.992 34.588C183.547 34.588 184.661 34.28 185.336 33.664C186.011 33.0187 186.348 32.0067 186.348 30.628V28.956C186.348 27.5773 186.011 26.58 185.336 25.964C184.661 25.3187 183.547 24.996 181.992 24.996H177.284V34.588H181.992ZM197.815 51V46.688H204.723V24.6H197.815V20.288H217.351V24.6H210.443V46.688H217.351V51H197.815ZM234.758 51.528C230.739 51.528 227.762 50.1493 225.826 47.392C223.919 44.6347 222.966 40.7187 222.966 35.644C222.966 30.5987 223.919 26.6973 225.826 23.94C227.762 21.1533 230.739 19.76 234.758 19.76C236.283 19.76 237.618 19.9653 238.762 20.376C239.935 20.7867 240.947 21.3587 241.798 22.092C242.648 22.796 243.352 23.6613 243.91 24.688C244.467 25.6853 244.907 26.7853 245.23 27.988L239.95 29.484C239.744 28.78 239.51 28.12 239.246 27.504C238.982 26.888 238.644 26.36 238.234 25.92C237.852 25.4507 237.368 25.0987 236.782 24.864C236.195 24.6 235.491 24.468 234.67 24.468C232.675 24.468 231.238 25.2307 230.358 26.756C229.507 28.2813 229.082 30.364 229.082 33.004V38.284C229.082 40.924 229.507 43.0067 230.358 44.532C231.238 46.0573 232.675 46.82 234.67 46.82C235.491 46.82 236.195 46.7027 236.782 46.468C237.368 46.204 237.852 45.852 238.234 45.412C238.644 44.9427 238.982 44.4 239.246 43.784C239.51 43.168 239.744 42.508 239.95 41.804L245.23 43.3C244.907 44.5027 244.467 45.6173 243.91 46.644C243.352 47.6413 242.648 48.5067 241.798 49.24C240.947 49.944 239.935 50.5013 238.762 50.912C237.618 51.3227 236.283 51.528 234.758 51.528ZM250.8 51V20.288H270.204V25.04H256.564V33.048H269.72V37.8H256.564V46.248H270.204V51H250.8Z" fill="white"/>
<defs>
<filter id="filter0_d" x="0" y="37.4285" width="24" height="34.5714" filterUnits="userSpaceOnUse" color-interpolation-filters="sRGB">
<feFlood flood-opacity="0" result="BackgroundImageFix"/>
<feColorMatrix in="SourceAlpha" type="matrix" values="0 0 0 0 0 0 0 0 0 0 0 0 0 0 0 0 0 0 127 0"/>
<feOffset dx="4" dy="2"/>
<feGaussianBlur stdDeviation="2"/>
<feColorMatrix type="matrix" values="0 0 0 0 0.287561 0 0 0 0 0.313823 0 0 0 0 0.567686 0 0 0 1 0"/>
<feBlend mode="normal" in2="BackgroundImageFix" result="effect1_dropShadow"/>
<feBlend mode="normal" in="SourceGraphic" in2="effect1_dropShadow" result="shape"/>
</filter>
</defs>
</svg>
